<?xml version="1.0" encoding="UTF-8" standalone="no"?>
<!-- Created with Inkscape (http://www.inkscape.org/) -->

<svg
   width="700"
   height="500"
   viewBox="-350 -250 700 500"
   version="1.1"
   id="svg1"
   inkscape:version="1.4.3 (fcd0343856, 2026-01-01)"
   sodipodi:docname="happy.svg"
   xmlns:inkscape="http://www.inkscape.org/namespaces/inkscape"
   xmlns:sodipodi="http://sodipodi.sourceforge.net/DTD/sodipodi-0.dtd"
   xmlns="http://www.w3.org/2000/svg"
   xmlns:svg="http://www.w3.org/2000/svg">
   <style>
      @import url(../css/keyframes.css);
   </style>
  <sodipodi:namedview
     id="namedview1"
     pagecolor="#ffffff"
     bordercolor="#000000"
     borderopacity="0.25"
     inkscape:showpageshadow="2"
     inkscape:pageopacity="0.0"
     inkscape:pagecheckerboard="0"
     inkscape:deskcolor="#d1d1d1"
     inkscape:document-units="mm"
     inkscape:zoom="0.73495371"
     inkscape:cx="593.23464"
     inkscape:cy="385.73858"
     inkscape:window-width="1920"
     inkscape:window-height="1011"
     inkscape:window-x="0"
     inkscape:window-y="0"
     inkscape:window-maximized="1"
     inkscape:current-layer="g1" />
  <defs
     id="defs1" />
  <g
     inkscape:label="Layer 1"
     inkscape:groupmode="layer"
     id="layer1">
    <g
       id="g1"
       transform="rotate(-65.47739,-142.05054,-118.33546)">
      <path
         d="m -409.72269,0.46270768 q 0,0 -0.52106,0.16366966 -0.40314,0.25873225 -0.99639,0.75334156 -0.49819,0.3766729 -1.06858,1.0842709 -1.99278,1.5066796 -4.3093,1.0013067 -2.1986,-0.4103094 -3.70528,-2.4030801 -0.0915,-0.85199512 -1.43418,-2.3238985 -1.34301,-1.4717086 -2.28648,-2.232228 -0.56321,-1.2322583 -0.82195,-1.6353851 -0.3767,-0.4981776 -1.88335,-2.4909681 -1.71968,-1.969907 -4.59224,-5.6473917 -2.89541,-3.890491 -6.16751,-8.279165 -3.17703,-4.506617 -6.09533,-8.610099 -2.91829,-4.103482 -4.84738,-7.020452 -1.834,-3.034909 -1.90262,-3.67389 0,0 -0.35381,-0.285197 -0.47173,-0.380259 -0.94347,-0.760511 0,0 -0.96634,-0.973523 -0.98921,-1.186515 -1.64389,-3.270769 -0.91706,-1.517425 -2.16496,-3.10709 -1.24794,-1.589655 -1.71967,-1.969907 -0.20942,-0.947063 -1.7847,-3.578836 -1.59816,-2.844768 -3.17344,-5.476541 -1.31655,-2.22865 -2.7739,-4.76535 -1.36229,-2.654637 -2.42011,-4.480147 -0.96275,-1.943457 -0.96275,-1.943457 -0.47173,-0.380259 -0.47173,-0.380259 -0.11797,-0.09504 -0.11797,-0.09504 -0.0915,-0.851997 -2.91111,-6.043341 -2.84252,-5.404339 -7.11592,-14.102317 -0.5632,-1.232256 -1.17216,-2.890509 -0.60894,-1.65826 -1.08068,-2.038512 -0.46814,-1.350193 0.50538,-2.316529 0.85558,-1.061404 2.41881,-1.552364 1.65824,-0.60895 3.43084,-0.15291 l 2.83759,0.34171 5.06888,11.090289 q 1.78111,4.548752 3.44787,8.032522 1.76183,3.365827 2.2336,3.746076 0,0 1.31654,2.228639 1.31654,2.228651 3.15054,5.263571 1.834,3.034909 3.38648,5.453638 2.61018,4.24432 4.01826,7.324933 1.50309,2.962693 1.97487,3.342935 -0.23583,-0.190159 1.73762,-2.879743 1.9735,-2.689612 5.20571,-6.699359 3.23221,-4.00974 6.55949,-8.137423 3.30441,-4.340686 5.87116,-7.524896 2.54388,-3.397205 3.25867,-4.766671 l 4.35371,-6.607884 -8.91497,-13.801427 q -2.54162,-3.6053 -6.02313,-8.94103 -3.48151,-5.33574 -5.833,-9.1769 -3.90394,-6.25992 -4.34561,-8.36705 -0.44168,-2.10711 0.6991,-3.52231 0.28519,-0.35381 0.99636,-0.7534 0.68831,-0.61253 1.63537,-0.82194 0.92421,-0.42239 1.82193,-0.0879 2.43805,-0.36948 3.99406,1.07937 1.65107,1.33091 2.84251,5.40433 1.66316,4.4537 4.39134,8.79305 2.70525,4.12638 4.30342,6.97113 1.41521,1.14079 2.07349,2.25511 0.54035,1.01924 0.63181,1.87125 0.0457,0.426 1.00848,2.36945 0.96275,1.94344 2.02056,3.76895 1.05782,1.82552 1.41161,2.11072 0.82554,0.66545 1.71968,1.969899 0.89415,1.304444 0.98562,2.156449 0.51746,0.80627 2.68242,3.913353 2.16496,3.10709 5.20119,7.305641 2.91829,4.103492 5.6236,8.22984 2.58739,4.031269 4.18556,6.876019 0.82554,0.665456 1.64749,2.300838 0.70401,1.540324 1.64749,2.300846 1.0349,1.612528 2.58738,4.031261 1.55237,2.418803 2.14209,2.894095 2.23715,2.776168 4.49717,5.765326 2.35509,2.871231 3.9797,4.959072 1.83761,2.064971 2.19142,2.350164 0.0915,0.851995 -1.02285,1.510267 -1.11433,0.658276 -2.63177,1.575281 -3.10351,1.19503 -5.0169,0.430917 -1.70041,-0.786978 -3.36717,-4.27074 -0.46814,-1.350194 -3.45864,-5.122742 -3.01336,-3.985549 -5.90879,-7.876032 -1.19858,-2.133613 -3.4815,-5.335748 -2.40082,-3.297229 -4.80165,-6.594451 -2.51875,-3.392294 -4.16623,-5.693128 -1.76542,-2.395912 -1.81121,-2.82187 -0.47174,-0.380252 -0.82554,-0.665456 -0.3538,-0.285186 -0.3538,-0.285186 -0.42599,0.04573 -2.73043,2.663152 -2.42236,2.522344 -5.53664,6.627156 -3.23221,4.009747 -6.51374,8.563417 -3.30441,4.340685 -5.58956,8.14102 -1.04571,1.297275 -2.37662,2.948348 -1.33091,1.651074 -2.09144,2.594547 -1.04571,1.297264 -1.80623,2.240737 -0.66546,0.825537 -0.66546,0.825537 0.25906,0.40292 1.8111,2.821939 1.55248,2.418729 3.85817,5.833929 2.1878,3.320119 4.51647,6.948254 2.30575,3.415164 4.3299,6.214194 2.00129,2.586033 2.87256,3.677485 1.74255,2.182906 4.2613,5.575199 2.61382,3.274358 5.15545,6.8796424 2.75463,3.5824215 4.66085,6.2863883 2.00127,2.58603961 2.51875,3.39229225 z m 44.65014,-70.89132668 q -1.12366,-0.757 -2.21302,-0.837443 -1.16387,-0.212325 -1.46193,-0.739857 -0.29807,-0.52753 -0.72805,-0.980526 -0.37263,-0.65938 -1.19817,-0.888883 -1.10651,-0.418722 -1.88004,-3.635364 -0.84803,-3.348521 -1.31166,-8.480118 -0.53812,-5.263473 -0.64039,-11.295186 0.45895,-1.651185 0.54531,-3.961784 0.0864,-2.31061 0.31584,-3.13621 -0.29806,-0.52753 -0.12596,-1.14673 0.0976,-0.75108 0.62512,-1.04913 l -0.4471,-0.7913 q -0.37263,-0.65938 -0.0798,-2.91266 0.42464,-2.32775 1.22778,-5.21733 0.72864,-3.02147 1.73819,-5.85367 0.93502,-2.9641 1.80676,-4.50055 1.72633,-3.4112 4.40422,-5.44618 2.80976,-2.10951 5.88859,-1.58729 0.61919,0.17211 2.06399,0.57369 1.44479,0.40157 3.30238,0.91788 1.91495,0.30992 3.90441,0.7517 l 7.33869,1.59508 1.35189,7.93544 q 1.26613,6.24402 4.2929,9.75343 3.15864,3.43488 6.51246,5.36761 1.47909,1.07814 4.20249,1.27924 2.85529,0.12658 4.85069,-0.65287 1.12958,-0.46424 2.42533,-0.32643 1.29576,0.1378 2.11543,1.58852 0.74516,1.31883 0.66471,2.40819 -0.0804,1.08936 -1.25023,2.098282 -4.05409,2.986544 -9.369,2.509826 -5.18305,-0.551225 -11.77594,-4.829478 -0.97463,-0.49324 -3.09006,-2.08176 -2.05807,-1.79492 -2.56253,-2.37982 -0.15495,0.95747 -0.56245,3.62351 -0.48201,2.53415 -0.82622,3.772538 -3.99859,14.786187 -8.99362,21.95807 -4.93767,6.965486 -11.06104,6.597584 z m 0.57493,-10.068016 q 0.52156,0.923214 2.76954,-1.564823 2.3053,-2.694403 4.11207,-7.194956 2.32308,-6.358143 4.19907,-13.507576 2.00787,-7.22395 2.54195,-12.74527 l 0.21887,-6.38713 q -3.03268,-2.28816 -5.21141,-2.44904 -2.12135,-0.36728 -3.17641,0.22885 -1.71451,0.96865 -3.35507,6.0713 -1.50871,5.02808 -2.3527,12.46435 -0.844,7.436279 -0.69622,15.704073 0.17149,3.382815 0.5322,6.484718 z m 62.3186,22.01619 q -0.59307,0.124038 -1.48269,0.310103 -0.85861,0.334336 -1.87905,-0.845047 -0.74814,-0.617308 -1.20655,-2.06898 -0.3101,-1.482707 -0.37502,-5.492788 0.21417,-2.675647 0.13179,-5.289269 -0.0514,-2.465356 -0.29944,-3.651518 -0.12405,-0.59308 -0.19964,-2.434343 0.1037,-1.724011 -0.0514,-2.465356 0.49328,-1.341221 0.50393,-3.510032 0.0107,-2.168813 -0.33045,-3.799791 -0.37213,-1.779243 1.097,-3.63407 -0.24808,-1.186162 -0.1754,-3.058438 0.22095,-1.903282 0.0969,-2.496362 0.0107,-2.16882 0.408,-7.668384 0.51458,-5.67885 1.34315,-12.81616 0.97684,-7.16833 1.86743,-14.00912 0.8906,-6.84078 1.73953,-11.66102 0.91095,-4.52368 0.8838,-7.61313 0.0901,-3.26873 -0.21997,-4.75144 -0.12404,-0.59307 0.11047,-0.95163 0.20351,-0.50684 0.99331,-1.91007 1.17261,-1.79282 2.33452,-1.41683 1.31021,0.345 3.18926,1.19004 1.58931,1.67943 2.31321,2.92083 0.87222,1.21037 0.96133,4.59637 0.46517,2.22405 0.0649,4.01008 -0.40024,1.78604 -0.80725,2.7997 -0.43803,0.86539 -0.1725,0.6551 5.48988,-4.08857 10.05525,-5.19818 4.68262,-1.28887 8.19944,-0.0126 3.63406,1.09701 5.94727,4.01783 2.31321,2.92083 3.21253,7.22067 0.37212,1.77924 0.15795,4.45489 -0.24518,2.52738 -0.99719,4.85124 -0.63476,2.14459 -1.33831,3.22028 -0.59309,0.12404 -0.96909,1.28598 -0.40702,1.01366 -0.75201,2.32386 -0.87605,1.73079 -3.14178,4.2165 -2.14847,2.30642 -4.42097,4.01976 -2.30353,1.56508 -3.58272,1.36835 0,0 -0.41383,0.24127 -0.29654,0.062 -0.14148,0.80337 0.062,0.29657 -2.09323,1.8306 -2.18626,1.38579 -5.11386,2.92664 -2.95863,1.39257 -5.33095,1.88875 -3.11368,0.65122 -4.6962,-0.25585 -0.23452,0.35857 -0.55529,1.04468 -0.17249,0.6551 -0.0795,1.09991 0.18606,0.88963 -0.0281,3.565273 -0.0969,2.496362 -0.52136,4.906479 -0.42446,2.410116 -1.16582,2.565175 0,0 -0.2035,0.506828 -0.20351,0.506835 0.54461,1.12415 0,0 0.19285,1.661983 0.37212,1.779244 -0.12114,3.120457 0.24809,1.186162 0.29944,3.651518 0.0514,2.465356 -0.29362,3.775557 0.37212,1.779242 0.12016,3.534258 -0.0727,1.872276 -0.66577,1.996321 -0.56206,0.272314 -0.36922,1.934294 0.22385,1.810256 0.37892,2.551603 0.62698,3.737771 -0.27329,6.092648 -0.90029,2.354883 -2.67954,2.727011 z m 7.58314,-53.274555 q 1.18616,-0.24808 4.67584,-2.06124 3.48969,-1.81316 7.0346,-4.10214 3.66219,-2.46826 5.24857,-4.50237 3.14179,-4.2165 4.31827,-8.95048 1.29372,-4.91327 -2.06416,-8.38939 -1.62031,-1.82769 -4.64095,-0.73166 -3.05166,0.94777 -6.32427,3.79881 -3.27261,2.85105 -5.88333,6.64696 -1.3761,2.29965 -2.26959,5.42688 -0.89351,3.12724 -1.3422,6.16145 -0.30041,3.0032 -0.0455,4.96173 0.25487,1.95852 1.29277,1.74144 z m 46.45639,37.884939 q -1.90838,1.063394 -3.76292,-0.452246 -1.70352,-1.503592 -2.39261,-4.293863 -0.68908,-2.790272 0.6089,-5.725886 0.3743,-0.881892 1.147,-2.947669 0.76065,-1.914782 1.03214,-3.412713 0.23535,-1.044939 1.19519,-3.55166 0.9478,-2.355723 2.04659,-4.699397 1.24979,-2.331625 1.93814,-3.340415 1.02649,-1.43768 1.48514,-3.37656 0.60964,-1.92683 0.69399,-2.98381 0.38635,-1.03289 0.9478,-2.35574 0.71245,-1.31078 1.37668,-2.01757 0.3984,-1.18388 1.11085,-2.49467 0.72449,-1.46178 1.56383,-2.45852 0.38635,-1.03289 0.65785,-2.53082 0.4225,-1.48589 1.03855,-1.58869 0.19919,-0.59194 0.24739,-1.19594 0.1992,-0.59194 0.73655,-1.61278 0.43455,-1.63688 1.74458,-4.72349 1.31005,-3.08662 3.12128,-6.74108 2.01044,-4.2464 2.17275,-8.18441 0.32535,-4.07696 -1.86732,-5.1637 -1.15979,-0.7004 -1.37744,-1.78148 -0.2056,-1.23209 0.4948,-2.39187 0.70039,-1.15979 1.94453,-1.51639 1.40719,-0.49554 2.90512,-0.22404 1.64893,0.28355 2.82077,0.83295 1.18388,0.3984 1.00879,0.68834 -0.0603,0.75499 0.68267,0.96625 0.33814,-0.42889 1.12363,1.1534 0.94854,1.44333 1.70993,3.32761 0.76139,1.88428 0.70114,2.63928 -0.3502,0.57989 -0.36225,0.73089 0,0 0.60399,0.0482 0,0 1.72123,-0.62244 1.7333,-0.77344 3.62962,-1.68583 2.05938,-1.05133 2.71157,-1.60713 0,0 0.77909,-0.24175 0.94214,-0.38069 1.59434,-0.93649 3.11638,-0.96698 6.52908,0.0652 3.56372,1.04419 5.52104,3.17587 2.71872,4.01596 2.44157,7.48892 -0.12616,3.48502 -2.66189,8.60126 -0.36225,0.73089 -1.56384,2.45852 -1.03854,1.58868 -2.06503,3.02636 -1.01444,1.28669 -1.01444,1.28669 -3.90677,5.15879 -8.87693,8.4092 -4.97015,3.25041 -10.019,5.58278 -1.59433,0.93648 -3.30352,1.40793 -1.54614,0.33249 -2.76617,0.38709 -1.20799,-0.0964 -1.63688,-0.43455 -1.56458,-1.34054 -2.61027,-5.37495 -0.91163,1.90273 -1.82328,3.80546 -0.7486,1.76378 -0.9478,2.35572 -0.23534,1.04494 -0.4466,1.78789 -0.19919,0.59194 -0.83933,0.99673 0,0 -0.19921,0.59195 -0.19919,0.59194 -1.20158,1.72762 -1.85944,4.258459 -3.32048,7.333021 -1.47309,3.225565 -2.40883,5.430291 -0.9478,2.355724 -1.5454,4.131557 -0.62735,4.052858 -2.29964,7.870363 -1.68433,3.968503 -2.47547,4.361247 z m 21.40309,-41.600579 q 0.6281,-0.25379 2.69952,-1.45613 2.23448,-1.34128 4.95811,-3.09941 2.73567,-1.90913 4.99425,-3.55241 2.40957,-1.63122 3.23687,-2.47697 1.31644,-1.26258 2.49393,-2.68822 1.18954,-1.57663 1.95019,-3.49141 0.54939,-1.17183 1.27389,-2.63362 0.72449,-1.46178 1.28593,-2.78461 0.7004,-1.15979 0.6458,-2.37983 0.10846,-1.35899 -0.72524,-2.33727 -0.59194,-0.1992 -3.69626,0.61678 -3.09227,0.66499 -6.89698,2.64076 -3.79266,1.82478 -6.78779,5.08084 -3.49632,3.82391 -5.35575,8.08236 -1.70844,4.2705 -1.79845,7.30252 0.061,3.04407 1.72198,3.17662 z m 34.50877,60.495995 q -0.24651,0.232292 -1.07136,-1.038222 -0.68259,-1.218384 -1.20883,-2.863368 -0.57834,-1.502792 -0.12323,-2.303955 0.16122,-2.199665 1.96744,-4.925511 1.8963,-2.531486 6.68442,-7.229406 2.25656,-1.754005 4.5416,-4.465632 2.42725,-2.659471 5.13893,-5.214645 1.18044,-1.019224 5.16264,-4.399256 3.98218,-3.380026 8.666,-7.793508 4.82605,-4.361336 8.44797,-8.518842 -5.10572,2.48404 -9.69471,5.318882 -4.53684,2.69263 -8.12553,4.119517 -3.44648,1.479036 -5.66983,0.502431 -1.69239,-1.104597 -3.51278,-2.740147 -1.62603,-1.725613 -1.45058,-4.404083 0.57841,-3.33741 2.49369,-8.1207 2.05751,-4.73114 7.22019,-13.9706 2.91082,-4.41825 3.99173,-6.92604 1.27527,-2.59786 1.31796,-4.03428 0.0427,-1.43641 -0.73003,-2.84914 -1.22305,-2.38456 -0.89592,-3.71668 0.52148,-1.42219 2.87759,-1.68763 3.24734,0.38404 4.42302,1.13782 1.22782,0.61156 2.29443,3.42278 0.45981,2.26604 0.68733,4.28556 0.42189,1.92945 -1.03828,5.91157 -0.62579,1.70663 -2.23764,4.34241 -1.46964,2.68793 -2.83499,5.09142 -1.17097,2.31343 -1.67823,3.25681 -3.35171,4.74061 -5.18639,8.42407 -1.69246,3.7356 -0.98137,3.99635 3.67877,-1.23252 7.28169,-3.13821 3.79728,-1.99576 7.99753,-4.65047 4.39463,-2.74478 9.72317,-6.2765 2.16651,-1.94837 4.28086,-3.75454 2.11435,-1.80615 3.8542,-3.91098 1.53125,-1.53595 2.80176,-2.3608 1.2705,-0.82486 1.89153,-0.75848 0.81539,-0.0237 1.65447,0.768 0.98131,0.84385 1.62602,1.72562 0.83909,0.7917 0.73479,1.07614 0.0901,0.19437 0.6068,0.54518 0.51672,0.35082 1.03345,0.70163 0.71109,0.26075 0.55464,0.68741 -0.1043,0.28444 -1.38903,1.5881 -1.14252,1.35581 -2.72592,3.03398 -1.38903,1.5881 -2.53154,2.94391 -1.09037,1.21359 -1.05245,1.55018 0.18014,0.38873 -1.20889,1.97683 -1.33688,1.44588 -3.11464,3.21412 -1.63556,1.82039 -2.97244,3.26627 -3.14311,4.171726 -6.71288,8.187014 -3.51761,3.873062 -7.74632,7.485384 -1.4791,1.393731 -4.48945,4.323412 -2.86814,2.98183 -5.68412,5.821441 -2.72591,3.033978 -4.25716,4.569929 -0.98607,0.929154 -3.01037,2.929688 -1.93421,2.194893 -4.30931,4.712147 -2.23288,2.5694 -4.30931,4.712146 -2.12858,2.284964 -3.21896,3.498562 -1.27526,2.597854 -2.74013,3.512782 -0.56888,-0.208593 -1.27997,-0.469342 z m 91.31899,24.684424 q 0,0 -0.39677,-0.662702 -0.29527,-0.550353 -0.0195,-1.823935 -2.49561,-1.621394 -1.19004,-4.239451 1.51955,-2.60776 6.636622,-6.436462 5.769295,-4.011787 10.468714,-8.075058 4.811553,-4.16511 10.765063,-9.776563 0.79525,-0.926849 1.906314,-1.731266 1.325042,-0.794116 1.773586,-1.201472 1.78388,-1.415451 4.699418,-4.06327 3.027675,-2.749658 5.943213,-5.397477 2.915538,-2.647819 4.46485,-3.645618 1.019521,-1.130527 2.028746,-2.04708 1.121361,-1.018392 2.242722,-2.036785 1.335336,-1.008094 2.568833,-2.128325 0.346705,-0.519494 2.049339,-2.475031 1.916611,-1.945242 4.179927,-4.409976 2.456696,-2.026487 3.262243,-3.167313 1.019522,-1.130528 1.376523,-1.863996 0.469139,-0.835307 0.846734,-1.996725 -0.121303,-1.936075 0.13386,-2.781684 0.357002,-0.73346 1.111065,-0.80441 0.754062,-0.0709 1.701505,0.29635 1.05958,0.26546 1.874294,1.16255 0.814713,0.897088 1.394862,2.211827 0.681984,1.426879 1.017263,3.373249 0.407356,0.448545 -0.286054,1.487531 -0.591572,1.151122 -1.143084,3.698232 -0.163621,1.171715 -2.528775,3.524314 -2.253019,2.250759 -5.617102,5.305934 -3.251946,2.953337 -6.819707,5.784241 -3.465921,2.943039 -6.360866,5.162908 -0.795249,0.92685 -1.916611,1.945242 -1.12136,1.018391 -2.354858,2.138622 -1.233496,1.120231 -2.354857,2.138623 -0.907386,1.02869 -1.702635,1.955538 -1.131657,1.232368 -3.262243,3.167313 -1.916611,1.945242 -3.017378,2.535682 -0.98863,0.488605 -2.222127,1.608834 -1.121362,1.018392 -3.47622,3.157014 -2.140881,2.148921 -6.41235,6.232785 -2.344561,1.924649 -4.352713,3.543779 -1.906314,1.731266 -2.813699,2.759955 -0.805546,1.140824 0.04006,1.395988 3.933931,-1.52646 6.879229,-2.564315 3.057437,-1.139696 6.970773,-2.238204 0.540086,-0.08124 2.608891,-0.732337 2.170643,-0.538957 4.137608,-1.302186 2.180941,-0.752932 2.303373,-1.068747 0,0 0.652222,-0.183084 0.76436,-0.284924 1.844533,-0.447416 1.080174,-0.16249 2.251889,0.0011 2.04821,-0.223144 2.822866,-0.722043 0.876494,-0.386762 3.994581,-0.55842 2.598595,-0.518363 7.378129,-1.789658 4.881374,-1.159159 10.313131,-2.61354 5.533596,-1.342243 10.302834,-2.399563 4.871075,-0.945185 7.347237,-1.147732 0.764359,-0.284925 1.528717,-0.569849 0.866198,-0.172788 1.518421,-0.355872 0.866198,-0.172787 1.508124,-0.141897 0.641926,0.03089 1.273555,0.275757 1.1007692,-0.590438 3.4853858,-1.119102 2.4864579,-0.416524 4.5655585,-1.281592 6.0221988,-0.353613 9.160879,-0.953222 3.3526559,-0.589311 5.0747547,-0.720912 1.925778,0.09267 3.199333,0.368429 1.48753,0.286055 1.894887,0.734598 0.590438,1.100769 0.589312,3.352656 0.111005,2.15005 -0.307777,4.16737 -0.306648,1.91548 -1.071007,2.200404 -0.641926,-0.03089 -2.588297,0.304388 -1.834235,0.233439 -4.7383472,0.415394 -2.6901357,0.192252 -5.8997646,0.0378 -2.03791399,0.0092 -5.0850529,0.934886 -2.9350017,0.823882 -5.6251381,1.016133 -2.2827792,0.640796 -5.7372752,1.117972 -3.342359,0.375336 -5.502704,0.700318 -1.85483,0.661389 -3.576929,0.79299 -1.609963,0.02976 -3.546037,0.151064 -0.581275,0.937147 -1.325041,0.794116 -0.743765,-0.143026 -1.395988,0.04006 -4.249746,1.404026 -6.094277,1.851441 -1.844532,0.447415 -4.534668,0.639666 -1.192309,0.264331 -3.026544,0.49777 -1.7221,0.131599 -3.475089,0.905126 -1.497827,-0.07208 -2.364025,0.100709 -0.754063,0.07095 -1.212903,0.692283 0,0 -1.844533,0.447413 -1.844531,0.447415 -4.260041,1.618001 -1.946371,0.335278 -4.106717,0.660261 -2.160346,0.324981 -3.8012,0.996667 -0.866198,0.172788 -1.936075,0.121304 -0.957741,-0.153323 -1.406285,0.254033 -0.8559,-0.04119 -2.812569,0.508066 -1.844532,0.447415 -4.351584,1.29189 -2.262186,0.212845 -6.073683,1.423488 -3.699361,1.108806 -5.859716,1.433792 -1.96696,0.763227 -4.677694,1.383432 -2.710723,0.620197 -4.117012,0.874233 -2.619189,0.946313 -4.289807,0.008 -1.56878,-0.826141 -1.20035,-4.025474 z m 38.134601,45.92149 q -0.766458,-0.986339 -1.561446,-2.787962 -0.656432,-1.86276 -0.990824,-3.3709153 -0.134649,-1.4307287 0.281105,-1.614196 0.692916,-0.3057821 0.387147,-0.9987029 0,0 0.248559,-0.9375456 0.309717,-0.7989613 0.313653,-2.290846 1.389784,-2.1034414 3.607138,-3.0819331 2.355939,-1.03964771 7.895386,-1.9939927 3.648083,-1.1131388 9.199868,-0.9139242 5.751525,0.2766445 12.069723,1.46222566 6.3182,1.18558047 11.788619,3.07642164 5.531574,2.0294232 8.678601,4.283261 2.7963628,1.0840031 4.1580614,3.7945385 1.3616975,2.710535 1.0766552,5.816617 -0.08136,1.691634 -0.9942384,3.750186 -0.9128719,2.058562 -2.1640722,4.100845 -1.2512,2.042284 -2.685861,3.668824 -1.340964,1.088466 -2.588219,1.63888 -1.047524,0.627825 -2.771692,1.223114 -1.663016,0.733867 -5.172518,1.785846 -2.800299,0.407886 -6.648122,1.443597 -3.786671,1.174288 -6.419779,2.336248 -2.755415,0.884794 -3.49717,2.205528 -0.68059,1.459333 1.084527,2.832844 1.565374,1.296077 2.099507,2.881671 0.672711,1.524428 0.208133,2.722864 -0.403413,1.337035 -2.066429,2.070902 -1.66302,0.733868 -4.198494,-0.134126 -2.335727,-0.790561 -4.622626,-2.596099 -2.087171,-1.72811 -3.004513,-3.806877 -0.67271,-1.524428 0.517336,-3.705302 1.328625,-2.242025 3.47249,-4.512659 2.3436,-2.193212 4.471187,-4.125525 l 2.820514,-2.238086 -8.311664,-3.451753 q -2.73521,-0.94542 -5.193249,-2.013151 -2.258301,-0.990303 -3.13469,-1.100277 -1.553037,-0.142526 -3.656486,-1.532304 -2.042283,-1.2512 -4.696124,-3.888247 z m 8.359959,-3.192433 q 2.425493,1.744382 6.404028,3.631285 4.117117,1.825747 8.588835,3.329444 4.610301,1.442539 8.238173,2.159609 4.227094,0.949358 7.549189,0.973505 3.322094,0.02415 6.061241,-0.522315 1.279806,-1.227055 2.392422,-3.208184 1.2512,-2.042283 0.961692,-3.073534 -1.345428,-3.048867 -6.754689,-4.801118 -5.209521,-1.6748269 -11.050812,-2.9052907 -0.937546,-0.2485594 -2.890067,-0.5459382 -1.952521,-0.29738 -3.766457,-0.6559149 -1.614197,-0.2811062 -2.152261,-0.3748086 -0.737806,-0.1711308 -3.921316,-0.2564339 -2.983769,-0.00787 -6.106123,0.045408 -2.983769,-0.00787 -3.815276,0.3590598 -0.831506,0.3669391 -1.740445,0.9336102 -0.847781,0.7052588 -0.635704,1.9362472 0.212077,1.2309881 2.63757,2.9753691 z m 2.994738,54.931863 q -1.314325,-2.670129 0.254311,-4.843002 1.598743,-2.024426 5.546844,-3.134243 3.948112,-1.109823 9.681851,-1.036167 1.93201,0.380987 3.655353,0.495174 1.871797,0.08408 2.910984,-0.126686 1.54478,-0.0042 4.546098,0.31453 3.149764,0.288572 6.478101,0.695504 3.328338,0.406932 5.884285,0.815947 2.7345054,0.527353 3.3885442,0.703831 0.120435,0.593831 1.2499543,0.828448 1.1295123,0.234607 2.1687077,0.02385 1.1876495,-0.240863 2.7625314,-0.09658 1.6049939,0.292746 2.31925256,0.766145 0.74228007,-0.150542 1.69323414,-0.03427 1.1295193,0.234618 1.7233441,0.114186 0.5938248,-0.120431 1.2478635,0.05605 0.6841487,0.324939 1.2779735,0.204507 2.1406804,0.647785 6.6286406,1.437784 4.666525,0.90835 10.253894,1.784507 5.617479,1.024618 11.026283,1.782425 5.408804,0.757807 9.03405,1.104518 3.80381,0.465062 4.546089,0.31452 1.18765,-0.240863 1.90191,0.232536 0.714252,0.473387 0.95511,1.66104 0.535694,0.35505 0.804583,0.91877 0.298989,0.712171 0.419428,1.305999 0,0 -0.473397,0.714251 -0.47339,0.714262 -1.420177,2.142774 -0.798332,1.398402 -2.104332,1.817825 -1.275889,0.567883 -3.057364,0.929177 Q 41.95468,79.655455 40.37979,79.511158 38.804907,79.366873 35.713273,78.60282 32.62163,77.838756 26.111333,76.222401 22.901347,75.636909 19.958166,74.842746 17.16344,74.018472 16.569615,74.138903 15.975791,74.259335 14.667713,73.906379 13.38974,73.701871 11.48783,73.469335 10.179754,73.116379 7.5936958,72.558904 5.156099,71.97133 2.2430285,71.325627 q -2.73451211,-0.527364 -4.8149866,-0.87825 -1.9320123,-0.380985 -2.2289206,-0.320764 -0.5938248,0.120431 -1.2177606,0.0924 -0.5938248,0.120431 -1.3080764,-0.352957 -0.120435,-0.59383 -1.0412792,-0.561638 -0.7422789,0.150542 -0.7422789,0.150542 -1.4845662,0.301074 -8.3499082,-0.779591 -8.646815,-0.719371 -15.897306,-1.412795 -7.220384,-0.544976 -11.377163,0.298048 -3.562949,0.722589 -4.780693,0.814998 -1.069304,0.06229 -1.903998,-1.004924 z m 6.25973,31.481716 q 2.344679,-5.939445 6.561471,-7.813578 4.370273,-1.724679 13.472309,-0.785579 4.699445,0.240325 6.214101,0.220127 1.514644,-0.02019 3.007085,-1.706494 0.599778,-0.462518 1.643901,-1.688328 1.046121,-1.074395 1.805468,-0.933022 1.058232,-0.165605 2.273991,0.121168 1.367226,0.28476 1.3753024,0.890618 0.00808,0.605858 0.3190827,1.207677 0.3130369,0.753292 0.018179,1.363191 0.00808,0.605858 -0.1332892,1.365205 -0.1413667,0.759348 -0.7472268,0.767426 -1.0521821,0.619987 -0.276682,1.973076 0.9269712,1.351074 3.9764592,2.825332 2.4436302,1.482334 4.89938295,3.873466 2.45777075,2.5426 4.45912435,4.93978 2.1548407,2.54664 3.0858477,4.20064 0.31303,0.75328 0.7876144,2.26188 0.4745888,1.50859 0.7997288,3.17066 0.327166,1.81355 0.1918566,3.02729 -0.1151175,2.72838 -1.4540697,4.56414 -1.3369342,1.98721 -3.1322966,3.67757 -1.3369342,1.98722 -3.60285305,2.47189 -2.26389845,0.63616 -4.84284725,0.36756 -2.5789306,-0.2686 -4.7135836,-1.30057 -1.5207149,-0.43422 -3.6694849,-2.52645 -2.148788,-2.09224 -4.154173,-4.79236 -2.005403,-2.70012 -2.944493,-4.95996 -0.480639,-1.96299 -0.825981,-5.13972 -0.343318,-3.02526 -0.379668,-5.75163 0.117142,-2.57692 0.559417,-3.49177 0.591712,-1.06834 -1.688328,-1.643905 -2.280058,-0.57557 -6.525113,-0.821958 -3.336267,-0.258502 -4.846885,0.06463 -1.510606,0.32312 -2.112426,0.634125 -1.04612,1.074398 -2.688008,2.914198 -1.488395,1.98923 -0.381696,5.45878 0.795694,2.86773 4.012813,5.5517 3.219126,2.83543 5.220491,5.23262 1.068324,0.59172 1.237947,1.9529 0.323127,1.51062 -0.109059,3.18279 -1.038044,1.68025 -2.556733,1.3975 -1.365202,-0.13328 -4.261219,-1.45809 -1.066306,-0.44027 -2.754634,-2.08417 -1.534847,-1.49445 -3.227213,-3.44128 -1.538881,-1.79739 -2.46787,-3.29992 -2.484018,-4.51165 -2.687982,-8.44771 -0.05251,-3.9381 1.262209,-7.591419 z m 30.866537,8.526495 q 0.801753,3.32214 1.130936,5.28713 0.329178,1.96502 1.716602,3.76442 1.5388805,1.79739 5.6647905,4.46923 1.674189,0.58365 3.3362677,0.2585 1.66409916,-0.17367 2.26187373,-0.78762 1.49647857,-1.38337 0.86435999,-3.34434 -0.47862589,-1.81152 -1.71255722,-3.46148 -0.468536,-1.05419 -2.3143838,-3.15048 -1.6923663,-1.94683 -3.9905905,-3.88558 -2.1467632,-1.94078 -3.9805004,-3.12826 -1.833738,-1.18748 -2.12859,-0.57758 -0.609896,-0.29486 -0.735104,1.6762 -0.123194,2.12253 -0.113104,2.87986 z m -48.27093,75.7939 q 0.418132,-1.45593 2.479602,-2.59752 2.019659,-0.99598 4.68365,-1.49172 2.767783,-0.30833 4.951682,0.31887 2.183891,0.62718 7.860533,3.36067 5.634815,2.87907 11.289785,6.23675 3.450923,2.25188 4.158731,1.98236 0.707818,-0.26953 -0.472569,-4.39096 -0.433767,-2.331 -1.138579,-4.26702 -0.559213,-1.89423 -1.535046,-3.43529 -0.373307,-0.89522 -1.265513,-2.72746 -0.892213,-1.83226 -1.597014,-3.76829 -0.912365,-2.31083 -2.696784,-5.97533 -1.78442,-3.66451 -3.568839,-7.32901 -1.826232,-3.5189 -2.864032,-5.39296 -0.498752,-0.45844 -0.768257,-1.16627 -0.269521,-0.70781 -0.206059,-1.47759 0.209066,-0.72796 0.751132,-1.5179 0.896718,-1.47609 2.770783,-2.51389 1.832257,-0.89221 3.724964,-0.34863 1.455943,0.41812 4.615668,2.58637 3.305337,2.21008 7.857522,5.56625 4.510388,3.50175 9.435886,7.75314 0.602531,0.64584 1.538058,1.22972 1.081114,0.62569 2.349651,1.14761 1.2267006,0.6675 2.3914524,1.002 0.7279662,0.20907 1.4141245,0.56372 0.7899329,0.54207 1.4342721,1.04231 0.7481139,0.68766 0.9556744,1.06248 0.9975048,0.91688 -0.00301,2.20555 -0.8548997,1.3305 -2.7491233,1.88972 -2.6655102,1.5985 -5.7229621,0.72043 -3.09927,-0.73248 -7.152714,-3.6302 -0.8519,-0.87507 -1.745619,-1.60454 -0.789933,-0.54207 -1.434272,-1.04231 -0.498752,-0.45844 -0.893719,-0.72947 -0.249327,-0.22925 -0.249327,-0.22925 -0.167247,0.58238 0.557712,2.99699 0.724959,2.41462 1.53204,5.64085 0.97432,2.64383 1.824726,4.62168 0.954173,2.16524 1.347634,3.53906 0.539059,1.41562 0.455432,1.7068 -0.167259,0.58238 0.01864,1.58138 0.185911,0.99899 0.601025,1.74862 0.415189,0.74959 0.331494,1.04082 0.02016,0.47858 0.02016,0.47858 0,0 -0.167247,0.58237 -0.02166,0.6242 0.393461,1.37382 0.539059,1.41562 -0.441298,3.1829 -0.834752,1.80909 -2.459444,3.0761 -1.624685,1.26703 -3.080617,0.8489 -0.582373,-0.16725 -1.102785,-0.002 -0.416606,0.35318 -0.416606,0.35318 -0.334512,1.16474 -4.057963,0.4106 -3.765271,-0.60854 -6.779409,-2.73498 -2.183898,-0.6272 -4.990476,-2.37883 -2.848403,-1.60604 -5.447427,-2.98286 -3.305319,-2.21007 -5.946151,-3.4413 -2.640836,-1.23122 -4.617174,-1.48359 -1.976345,-0.2524 -3.350144,0.14107 -1.186412,0.28967 -2.329504,-0.66901 -0.997486,-0.91687 -0.495734,-2.664 z m -26.810971,25.19914 q 3.353845,-3.7833 6.884791,-3.6614 3.32146,0.16665 7.912254,4.22421 1.921169,2.32778 3.745683,3.69045 1.869263,1.57218 1.801129,2.79156 0,0 0.298965,0.37427 0.216581,0.50139 0.845113,0.3671 1.652636,1.0708 3.835192,4.10945 0.598037,0.74846 1.367899,1.78881 0.814624,1.24985 0.814624,1.24985 1.428849,0.0233 1.652632,1.07082 0.223775,1.04746 0.32043,2.01258 0.141404,1.1746 1.316005,1.0332 0.673247,0.0752 1.876407,2.11828 1.329945,2.12565 2.622982,4.58748 1.29267,2.46205 2.18971,3.58474 0.25426,0.16473 1.36791,1.78881 1.113695,1.62404 2.571076,3.83187 1.457465,2.20777 2.615859,4.04134 1.076022,1.96071 1.419803,2.54442 -0.188066,1.68311 1.548845,-0.44042 1.736906,-2.1235 3.257185,-4.74839 2.680598,-3.85852 4.49988,-6.10917 1.736906,-2.12351 3.615232,-3.07244 2.768189,-0.37232 3.283836,0.50327 0.560364,1.08513 -0.959877,3.70998 -0.94368,1.735 -1.520278,2.62489 -0.658954,1.01699 -1.520267,2.62488 -0.816565,1.81737 -2.659178,5.49686 l -3.692372,6.81289 1.91403,1.78167 q 0.993667,2.08781 1.853079,3.54714 0.904127,1.66883 1.973011,3.08342 1.068895,1.41457 2.429666,2.65726 0,0 1.292677,2.46206 1.419803,2.54442 3.543327,4.28133 1.554057,3.1729 2.846746,5.63495 1.419803,2.54442 1.763569,3.12816 0.238052,2.13971 -0.09143,2.6482 -0.411848,0.63563 -2.918627,1.71887 -1.376977,0.73225 -2.843422,1.04558 -1.466473,0.31328 -2.648217,-0.0914 -1.054617,-0.32234 -1.285583,-1.91591 -0.34377,-0.58372 -1.412653,-1.99831 -0.941807,-1.33218 -1.666921,-2.16304 -0.395652,-1.33934 -1.68834,-3.8014 -1.247904,-2.25256 -3.034812,-3.95184 -1.502732,-2.41696 -2.705376,-4.46034 -1.076022,-1.9607 -0.746568,-2.46919 -1.435988,-0.56945 -2.259685,0.70181 -0.696581,1.35363 -2.463965,4.35988 -1.310781,2.58011 -1.633119,3.63473 -0.277588,1.26413 -1.736911,2.12353 -1.301728,0.059 -2.692972,-0.30092 -1.391245,-0.35995 -2.243507,-1.27316 -0.807508,-0.70372 -0.612296,-1.8407 0.411848,-0.63563 0.967026,-3.16386 0.599922,-2.31873 2.367299,-5.32499 l 3.729984,-7.14951 -2.921955,-4.96171 q -1.076023,-1.96071 -2.062528,-3.50242 -0.859435,-1.45931 -0.948912,-1.87832 -0.762763,-0.49422 -1.711675,-2.37254 -1.031323,-1.75118 -2.234416,-3.79428 -1.666913,-2.16304 -2.787747,-4.3332 -1.203205,-2.04303 -1.203205,-2.04303 0.329482,-0.50852 -0.433264,-1.00274 -1.937365,-0.35281 -2.041153,-1.86404 0.03047,-0.88273 -0.402802,-1.88545 -0.388475,-0.79326 -0.388475,-0.79326 -0.837986,0.17903 -1.353622,-0.69657 -0.598036,-0.74846 -1.158393,-1.83357 -1.017002,-0.65897 -2.512034,-2.53015 -1.577403,-1.74405 -2.818179,-3.45048 -2.370641,-1.35554 -3.088631,-1.64027 -0.717998,-0.28473 -0.920353,0.30615 -0.538982,0.55325 -0.741325,1.14412 -0.202355,0.59088 -0.531844,1.09938 -0.390428,2.27398 -7.66323,-7.67278 -1.860217,-4.09327 -2.764385,-5.76209 -1.031317,-1.75116 -0.619434,-2.38682 z M -103.782,245.28834 q 1.7136,-0.0251 3.43974,0.80663 1.620606,0.94039 2.819088,2.31545 1.198482,1.37505 1.645685,2.65398 0.869341,0.84426 1.092946,1.48373 0.226747,0.85366 0.766931,1.16714 0.540206,0.31346 1.310271,1.69478 0.770073,1.38134 1.431501,2.65712 0.999954,2.44919 2.546386,5.64024 1.655094,3.2966 3.307062,6.37897 1.651957,3.08239 2.862983,5.31424 1.211015,2.23186 1.540149,2.76266 1.304018,1.26639 -0.275828,3.11059 -0.83172,1.72615 -1.899589,1.95602 -0.959191,0.33541 -3.753197,-0.26642 -1.713601,0.0251 -3.241217,-1.88077 -1.527616,-1.90585 -2.974791,-5.63397 -0.447203,-1.27894 -1.444033,-3.51393 -1.102349,-2.12632 -2.195294,-3.61005 -0.447215,-1.27892 -1.444038,-3.51391 -0.993689,-2.02079 -1.984225,-3.82739 -0.33229,-0.74498 -1.20785,-2.01768 -0.76693,-1.16713 -1.64569,-2.65398 -0.77007,-1.38134 -1.11176,-2.76892 -3.50558,-5.30484 -3.422,-6.9129 -0.0219,-1.4994 3.83679,-1.34164 z m 33.882432,53.38688 q 1.070992,-0.0157 2.471133,0.49945 1.508811,0.62064 2.483677,1.35624 1.083543,0.84112 0.766931,1.16714 -0.735594,0.97486 -0.157777,3.85873 0.577834,2.88387 2.092917,3.93291 0.434659,0.42214 0.444073,1.06473 0.118069,0.74814 -0.195391,1.28834 -0.39705,2.14827 -2.209914,2.71042 -1.809716,0.77634 -4.603723,0.17451 -3.014477,-1.02712 -4.005028,-2.8337 -0.881885,-1.70105 -1.372988,-5.97879 -0.590371,-3.74065 0.564211,-5.3644 1.049053,-1.51507 3.721856,-1.87556 z m -98.657082,-4.10628 q 2.56807,-1.60727 4.88025,-1.62471 2.39251,0.11093 5.15538,1.95576 1.63869,1.47621 3.39006,3.41801 1.70333,2.15055 2.90876,4.0766 1.28582,2.05446 1.30238,2.93758 -0.19216,0.83507 0.73986,2.03875 0.88344,1.41279 1.84836,2.95328 1.73564,2.48773 3.052,2.02128 1.26833,-0.25769 2.59953,-2.69912 1.42731,-2.85897 3.62415,-7.62915 2.27721,-4.64176 4.61818,-10.03825 2.21258,-5.31611 3.87921,-10.64795 0.8962,-4.84966 0.49352,-6.92073 -0.45073,-1.86231 0.5765,-2.50521 0.70579,-1.15651 1.7173,-1.25346 0.96348,0.1118 2.89042,0.33541 1.54173,0.46471 3.00309,0.801 1.54172,0.46469 2.11997,0.81759 0.40126,0.64237 1.3024,2.93758 0.90057,2.29556 1.67275,4.67147 0.64378,2.45628 0.78877,3.25902 -0.64236,0.40126 -0.22362,1.92695 0.29002,1.60549 0.22712,3.78924 0.70753,1.70157 1.28754,4.91255 0.53196,3.41975 0.91893,6.03676 0.13102,4.20677 0.7748,6.66305 0.51536,2.53664 2.18724,5.77907 0.44985,0.43326 0.30573,1.05955 -0.0638,0.75471 -0.57738,1.07615 v 0 0 q -0.38434,1.67013 -2.11823,2.0405 -1.65354,0.49877 -3.77353,-0.31883 -4.23996,-1.63519 -5.81575,-5.29514 -1.62385,-3.4512 -1.67713,-11.81669 -0.38696,-2.61702 -0.59661,-4.0941 -0.25768,-1.26832 -0.65949,-1.91034 0,0 -0.72151,1.70245 -0.84991,1.7828 -1.7959,3.98315 -0.99405,2.40912 -1.61948,3.69404 -0.2402,1.04383 -1.50678,4.1596 -1.26657,3.11577 -2.87031,6.26386 -1.65178,3.35686 -2.7751,4.41729 -0.70579,1.15652 -1.62034,2.26498 -0.83419,1.23687 -1.34781,1.55833 -1.02722,0.64291 -3.29134,0.4516 -2.31216,0.0175 -4.68896,-0.6394 -2.29642,-0.52847 -3.19613,-1.39497 -0.32145,-0.51361 -0.64291,-1.02722 -0.44985,-0.43326 -0.8997,-0.86651 -1.55833,-1.34781 -3.3263,-4.17271 -1.89636,-2.74453 -3.0861,-5.21651 -1.18972,-2.472 -0.78878,-3.25903 0,0 -0.24164,-0.38485 -0.28913,-0.17646 -0.80275,0.145 -0.32146,-0.51362 -0.40126,-0.64237 0,0 0,0 0.64236,-0.40125 -0.20964,-1.47709 -0.77131,-0.94687 -2.21695,-1.82911 -1.57404,-0.80186 -2.82664,-1.09012 -2.50519,-0.57651 -3.13238,-2.14968 -0.5468,-1.44476 1.18622,-3.24418 z m -32.88558,0.0469 q 6.43026,-1.75345 11.83734,1.9534 5.44693,3.853 7.29337,11.19996 1.14236,5.34084 1.02256,11.81088 -0.22609,6.65606 -1.78073,13.04635 -1.51479,6.53642 -4.01266,11.77084 -2.49785,5.23441 -5.96549,8.06411 -1.26216,1.12922 -2.75018,2.00601 -1.63414,0.91667 -3.38786,1.39487 -1.60757,0.43836 -3.52068,0.33201 -1.87326,0.0398 -3.2018,-0.22597 -2.76338,-0.34552 -4.47717,-1.44828 -1.71381,-1.10276 -3.57368,-3.89279 -1.19561,-2.65715 -1.51442,-3.82629 -0.31881,-1.16913 -0.22571,-3.70667 0.31905,-5.73935 2.05963,-10.29622 1.74055,-4.55689 5.6998,-8.46269 0.96986,-1.04952 2.45788,-1.92632 1.38173,-0.6908 2.98929,-1.12916 2.92284,-0.79702 5.97851,-0.53121 2.94937,0.45182 5.15471,2.20558 l 1.34181,0.89018 0.11961,-1.28869 q 0.38544,-4.34435 0.34571,-7.94473 -0.18587,-3.56053 -0.94304,-6.33724 -0.47822,-1.75371 -1.20887,-3.28158 -0.87677,-1.48802 -1.92631,-2.45789 -0.82369,-0.71745 -2.25852,-0.79721 -1.54112,0.10623 -3.14869,0.54459 -1.023,0.27897 -2.046,0.55792 -1.12929,0.46496 -2.03271,1.18236 -2.24532,1.55433 -3.42778,2.97583 -1.3286,1.46136 -2.61736,3.06887 l -0.50486,0.45171 0.14612,-0.0399 q -1.51461,1.35507 -2.59077,2.5906 -1.22233,1.27536 -1.22233,1.27536 -0.58456,0.15941 -0.96987,1.04952 -1.00973,0.90338 -3.04241,0.35861 -2.1788,-0.50494 -2.61717,-2.11249 -0.0531,-0.77057 0.67766,-2.69695 0.77062,-1.78024 1.87339,-3.49403 0.95661,-1.67394 1.79362,-2.05919 0.10628,-0.18601 0.86359,-0.86353 0.79715,-0.53139 1.00974,-0.90339 l -0.14613,0.0399 q 0.83707,-2.11237 2.15235,-2.47104 l 1.16914,-0.3188 q 0.30561,-1.18241 3.16208,-3.37443 2.89632,-2.04586 5.96531,-2.88274 z m 2.19091,33.94463 q -2.63057,0.71733 -4.13189,2.69685 -1.60762,2.16549 -2.55098,4.46386 -1.84686,4.74286 -1.28901,8.51598 0.45157,3.95911 2.31151,5.02202 0.99641,0.19931 1.72711,5e-5 0.62444,-0.0133 2.36487,-1.1159 1.23557,-0.65097 3.05579,-3.18842 1.82022,-2.53747 3.52087,-5.51337 1.55451,-2.93605 2.28528,-4.86243 l 1.06297,-3.58705 q -1.04954,0.75729 -2.07257,1.0362 -1.12929,0.46494 -1.35513,0.21252 -0.35867,-1.31528 -1.1159,-2.36487 -0.86353,-0.86359 -1.75366,-1.2489 -1.03625,-0.34547 -2.05924,-0.0665 z m -50.6824,-26.38803 q 3.78219,-0.35756 7.27676,0.34948 3.34311,0.70923 5.79274,2.49181 2.30035,1.93624 3.24846,4.64945 1.09084,2.10519 1.10177,2.86249 0.0131,0.90879 -1.03838,1.52993 -1.2117,0.0175 -2.13141,-0.72671 -1.06898,-0.59055 -2.746,-1.32383 -2.30035,-1.93622 -5.48325,-2.0418 -3.33437,-0.10337 -6.04321,1.14767 -2.70884,1.25104 -2.98555,3.07296 0.009,0.60586 0.485,2.11392 0.47623,1.50807 1.10613,3.16542 4.17254,5.69657 6.22243,11.27228 1.90061,5.72936 1.95306,9.36445 0.0393,2.72634 -1.58304,5.77963 -1.62019,3.20475 -4.46739,5.36676 -2.6848,2.91713 -5.9842,5.23716 -3.29939,2.32003 -6.60751,4.03421 -3.45961,1.71635 -6.17501,2.51301 -1.66609,0.024 -4.39897,-0.39101 -2.73289,-0.41504 -3.80188,-1.00559 -1.67482,-0.58182 -3.22879,-3.28629 -1.55178,-2.55301 -1.58894,-5.12787 -0.0153,-1.06025 0.56651,-2.73508 0.58181,-1.67482 1.91219,-3.96644 0.58181,-1.67483 1.31727,-3.20038 0.73764,-1.3741 0.72889,-1.97995 0.73328,-1.67702 2.09645,-1.69668 1.21388,0.13398 2.59453,1.326 1.23138,1.34568 2.01493,3.1523 0.63863,2.26321 0.50684,3.62856 -0.12961,1.5168 -1.16581,3.19819 -1.64205,1.69014 -1.6333,2.29598 0.009,0.60585 1.67482,0.58182 1.06025,-0.0153 3.91838,-1.42 2.70883,-1.25105 5.85895,-3.41742 3.00083,-2.01274 5.23999,-4.31745 2.83846,-2.76785 3.42682,-3.9883 0.4369,-1.21825 0.39975,-3.79312 -0.0306,-2.12047 -0.98527,-5.28807 -1.10613,-3.16542 -2.18167,-4.21036 0,0 -1.09085,-2.10519 -1.08863,-1.95371 -2.63604,-4.20379 -4.5323,-9.63024 -2.47302,-13.9018 2.05929,-4.27155 10.98685,-5.00635 z"
         id="text1"
         style="font-size:114.667px;font-family:Caveat;-inkscape-font-specification:'Caveat, Normal';fill:none;stroke:#000000;stroke-width:2.4232;stroke-linejoin:bevel"
         aria-label="Happy Valentines" />
    </g>
  </g>
</svg>
