<svg
    xmlns="http://www.w3.org/2000/svg"
    width="200"
    height="400"
    viewBox="-100 -200 200 400"
>
    <link xmlns="http://www.w3.org/1999/xhtml" rel="stylesheet" href="../css/rose1.css" type="text/css"/>
    <path
        id="path_rose1"
        d="
            M 20 190
            Q -8 120 -5 80
            Q 5 40 40 30
            Q 55 50 -5 80
            C -15 70 10 -20 -55 -20
            Q -50 25 -5 25
            Q 0 0 -5 -50
            C -60 -60 -25 -100 -30 -110
            C -40 -80 10 -80 10 -100
            Q 10 -120 -15 -115
            C -22 -110 -25 -100 -8 -105
            C 3 -108 5 -125 -2 -130
            Q -10 -136 -26 -115
            C -24 -140 5 -140 7 -140
            C 15 -135 30 -50 -28 -80
            C 20 -40 20 -90 30 -115
            C 55 -100 70 -40 0 -52
            C -20 -55 60 -40 30 -115
            Q 20 -140 5 -142
            Q -10 -150 -40 -130
            C -55 -122 -60 -120 -70 -110
            C -80 -100 -60 -40 -15 -50"
        stroke="black"
        stroke-width="2"
        fill="none"
    /> 
</svg>