<svg
    xmlns="http://www.w3.org/2000/svg"
    width="200"
    height="400"
    viewBox="-100 -200 200 450"
>
    <style>
        @import url(../css/rose2.css);
    </style>
    <path
        id="path_rose2"
        d="
            M -20 190
            Q 0 170 0 30
            C 0 0 0 -40 -10 -50
            C -70 -45 -30 -65 -80 -65
            C -45 -60 -60 -30 -10 -50
            C 5 -60 10 -40 40 -70
            Q 58 -90 70 -90
            C 40 -70 50 -25 -10 -53
            C -70 -60 -40 -130 -63 -120
            Q -70 -140 -50 -140
            Q -20 -100 -20 -70
            C -30 -110 -55 -100 -50 -140
            Q -45 -160 -20 -148
            C 20 -115 50 -150 30 -80
            C 25 -85 50 -125 60 -120
            C 60 -180 20 -125 -15 -150
            Q -30 -160 -38 -155
            C -30 -160 10 -170 20 -150
            Q 0 -160 -25 -155"
        stroke="black"
        stroke-width="2"
        fill="none"
    />
    <path 
        id="path_rose2_leaf"
        d="
            M -20 190
            Q -10 80 30 60
            C 50 50 50 70 100 40
            Q 40 -0 17 70
            M 10 80
            Q 5 20 -60 40
            C -5 100 -5 70 10 80
            C 50 90 80 65 90 125
            C 80 110 70 140 30 90
            Q 25 83 25 83"
        stroke="black"
        stroke-width="2"
        fill="none"/>
</svg>